<svg xmlns="http://www.w3.org/2000/svg" viewBox="0 0 16 18" width="16" height="18">
	<style>
		tspan { white-space:pre }
		.shp0 { fill: #cfcfcf } 
	</style>
	<g id="Group 1">
		<path id="calendar.svg" fill-rule="evenodd" class="shp0" d="M16.01 4.04L16.01 16.49C16.01 16.83 15.89 17.12 15.64 17.37C15.4 17.62 15.11 17.74 14.78 17.74L1.24 17.74C0.9 17.74 0.61 17.62 0.37 17.37C0.13 17.12 0 16.83 0 16.49L0 4.04C0 3.7 0.13 3.41 0.37 3.16C0.61 2.91 0.9 2.79 1.24 2.79L2.47 2.79L2.47 1.86C2.47 1.43 2.62 1.06 2.92 0.76C3.22 0.45 3.58 0.3 4.01 0.3L4.62 0.3C5.04 0.3 5.41 0.45 5.71 0.76C6.01 1.06 6.16 1.43 6.16 1.86L6.16 2.79L9.85 2.79L9.85 1.86C9.85 1.43 10 1.06 10.31 0.76C10.61 0.45 10.97 0.3 11.39 0.3L12.01 0.3C12.43 0.3 12.79 0.45 13.09 0.76C13.4 1.06 13.55 1.43 13.55 1.86L13.55 2.79L14.78 2.79C15.11 2.79 15.4 2.91 15.64 3.16C15.89 3.41 16.01 3.7 16.01 4.04ZM4.01 4.97L4.62 4.97C4.7 4.97 4.78 4.94 4.84 4.88C4.9 4.82 4.93 4.74 4.93 4.66L4.93 1.86C4.93 1.77 4.9 1.7 4.84 1.64C4.78 1.58 4.7 1.55 4.62 1.55L4.01 1.55C3.92 1.55 3.85 1.58 3.79 1.64C3.73 1.7 3.7 1.77 3.7 1.86L3.7 4.66C3.7 4.74 3.73 4.82 3.79 4.88C3.85 4.94 3.92 4.97 4.01 4.97ZM11.39 4.97L12.01 4.97C12.09 4.97 12.16 4.94 12.22 4.88C12.29 4.82 12.32 4.74 12.32 4.66L12.32 1.86C12.32 1.77 12.29 1.7 12.22 1.64C12.16 1.58 12.09 1.55 12.01 1.55L11.39 1.55C11.31 1.55 11.24 1.58 11.18 1.64C11.11 1.7 11.08 1.77 11.08 1.86L11.08 4.66C11.08 4.74 11.11 4.82 11.18 4.88C11.24 4.94 11.31 4.97 11.39 4.97ZM1.09 16.5L14.81 16.5L14.81 6.41L1.09 6.41L1.09 16.5Z" />
	</g>
</svg>